HIERARCHY
ROOT Hips
{
	OFFSET 0.000000 0.000000 0.000000
	CHANNELS 6 Xposition Yposition Zposition Zrotation Yrotation Xrotation 
	JOINT LHipJoint
	{
		OFFSET 0.000000 0.000000 0.000000
		CHANNELS 3 Zrotation Yrotation Xrotation
		JOINT LeftUpLeg
		{
			OFFSET 1.363060 -1.794630 0.839290
			CHANNELS 3 Zrotation Yrotation Xrotation
			JOINT LeftLeg
			{
				OFFSET 2.448110 -6.726130 0.000000
				CHANNELS 3 Zrotation Yrotation Xrotation
				JOINT LeftFoot
				{
					OFFSET 2.562200 -7.039590 0.000000
					CHANNELS 3 Zrotation Yrotation Xrotation
					JOINT LeftToeBase
					{
						OFFSET 0.157640 -0.433110 2.322550
						CHANNELS 3 Zrotation Yrotation Xrotation
						End Site
						{
							OFFSET 0.000000 0.000000 0.000000
						}
					}
				}
			}
		}
	}
	JOINT RHipJoint
	{
		OFFSET 0.000000 0.000000 0.000000
		CHANNELS 3 Zrotation Yrotation Xrotation
		JOINT RightUpLeg
		{
			OFFSET -1.305520 -1.794630 0.839290
			CHANNELS 3 Zrotation Yrotation Xrotation
			JOINT RightLeg
			{
				OFFSET -2.542530 -6.985550 0.000000
				CHANNELS 3 Zrotation Yrotation Xrotation
				JOINT RightFoot
				{
					OFFSET -2.568260 -7.056230 0.000000
					CHANNELS 3 Zrotation Yrotation Xrotation
					JOINT RightToeBase
					{
						OFFSET -0.164730 -0.452590 2.363150
						CHANNELS 3 Zrotation Yrotation Xrotation
						End Site
						{
							OFFSET 0.000000 0.000000 0.000000
						}
					}
				}
			}
		}
	}
	JOINT LowerBack
	{
		OFFSET 0.000000 0.000000 0.000000
		CHANNELS 3 Zrotation Yrotation Xrotation
		JOINT Spine
		{
			OFFSET 0.028270 2.035590 -0.193380
			CHANNELS 3 Zrotation Yrotation Xrotation
			JOINT Spine1
			{
				OFFSET 0.056720 2.048850 -0.042750
				CHANNELS 3 Zrotation Yrotation Xrotation
				JOINT Neck
				{
					OFFSET 0.000000 0.000000 0.000000
					CHANNELS 3 Zrotation Yrotation Xrotation
					JOINT Neck1
					{
						OFFSET -0.054170 1.746240 0.172020
						CHANNELS 3 Zrotation Yrotation Xrotation
						JOINT Head
						{
							OFFSET 0.104070 1.761360 -0.123970
							CHANNELS 3 Zrotation Yrotation Xrotation
							End Site
							{
								OFFSET 0.000000 0.000000 0.000000
							}
						}
					}
				}
				JOINT LeftShoulder
				{
					OFFSET 0.000000 0.000000 0.000000
					CHANNELS 3 Zrotation Yrotation Xrotation
					JOINT LeftArm
					{
						OFFSET 3.362410 1.200890 -0.311210
						CHANNELS 3 Zrotation Yrotation Xrotation
						JOINT LeftForeArm
						{
							OFFSET 4.983000 -0.000000 -0.000000
							CHANNELS 3 Zrotation Yrotation Xrotation
							JOINT LeftHand
							{
								OFFSET 3.483560 -0.000000 -0.000000
								CHANNELS 3 Zrotation Yrotation Xrotation
								JOINT LeftFingerBase
								{
									OFFSET 0.000000 0.000000 0.000000
									CHANNELS 3 Zrotation Yrotation Xrotation
									JOINT LeftHandIndex1
									{
										OFFSET 0.715260 -0.000000 -0.000000
										CHANNELS 3 Zrotation Yrotation Xrotation
										End Site
										{
											OFFSET 0.000000 0.000000 0.000000
										}
									}
								}
								JOINT LThumb
								{
									OFFSET 0.000000 0.000000 0.000000
									CHANNELS 3 Zrotation Yrotation Xrotation
									End Site
									{
										OFFSET 0.000000 0.000000 0.000000
									}
								}
							}
						}
					}
				}
				JOINT RightShoulder
				{
					OFFSET 0.000000 0.000000 0.000000
					CHANNELS 3 Zrotation Yrotation Xrotation
					JOINT RightArm
					{
						OFFSET -3.136600 1.374050 -0.404650
						CHANNELS 3 Zrotation Yrotation Xrotation
						JOINT RightForeArm
						{
							OFFSET -5.241900 -0.000000 -0.000000
							CHANNELS 3 Zrotation Yrotation Xrotation
							JOINT RightHand
							{
								OFFSET -3.444170 -0.000000 -0.000000
								CHANNELS 3 Zrotation Yrotation Xrotation
								JOINT RightFingerBase
								{
									OFFSET 0.000000 0.000000 0.000000
									CHANNELS 3 Zrotation Yrotation Xrotation
									JOINT RightHandIndex1
									{
										OFFSET -0.622530 -0.000000 -0.000000
										CHANNELS 3 Zrotation Yrotation Xrotation
										End Site
										{
											OFFSET 0.000000 0.000000 0.000000
										}
									}
								}
								JOINT RThumb
								{
									OFFSET 0.000000 0.000000 0.000000
									CHANNELS 3 Zrotation Yrotation Xrotation
									End Site
									{
										OFFSET 0.000000 0.000000 0.000000
									}
								}
							}
						}
					}
				}
			}
		}
	}
}
MOTION
Frames: 12
Frame Time: 0.008333
4.713859 16.691500 -2.428403 106.833949 -82.684142 -125.152933 -6.565543 -5.311770 -0.759583 -24.659037 11.008760 -86.924796 -3.413869 0.774025 15.149540 0.459569 5.397976 19.427260 2.992100 0.000000 -50.800200 11.655767 -0.358451 -5.198848 1.526216 -11.104604 9.222210 0.770259 -2.819650 27.584272 -2.406867 -10.794008 -12.790120 0.696300 0.000000 -59.429500 -10.898862 -0.022069 5.189680 -2.574685 0.690674 -1.284856 -4.823757 0.856467 1.790324 8.931669 -16.615086 -8.907213 -0.796526 -0.029562 -0.463088 0.000000 0.000000 0.000000 1.631781 28.288234 0.727012 -75.844492 28.377306 -36.280447 -4.792834 -4.631001 0.008092 0.930652 -2.207359 -0.021602 -0.200606 -0.010483 -0.000000 0.000000 0.000000 0.000000 0.000000 0.000000 0.000000 7.483519 -11.488583 -2.217244 77.417874 2.427032 9.396540 2.097999 37.963984 0.010639 -0.836012 9.054233 -0.072368 0.072665 -0.155661 -0.000000 0.000000 0.000000 0.000000 0.000000 0.000000 0.000000 
4.722411 16.673781 -2.426011 105.854443 -82.663541 -124.571287 -6.611231 -5.212992 -1.081490 -24.974123 11.396476 -86.381572 -3.123315 1.074071 17.977774 0.471562 4.939032 20.709958 2.769800 -0.000000 -48.204399 11.716873 -0.380394 -5.201486 1.154030 -11.499897 9.396360 0.756826 -2.836226 27.845149 -2.362044 -10.567054 -12.930403 0.721000 -0.000000 -59.816900 -10.846270 -0.128443 5.454447 -2.558732 0.583202 -1.228415 -4.816558 0.754141 1.770200 9.008834 -16.779654 -8.924096 -0.821585 -0.031119 -0.468997 0.000000 0.000000 0.000000 1.740080 28.061484 0.723829 -75.852122 28.248650 -36.042483 -4.806676 -4.352437 0.007484 0.838565 -2.041143 -0.018310 -0.200369 -0.011579 -0.000000 0.000000 0.000000 0.000000 0.000000 0.000000 0.000000 7.733856 -11.706774 -2.220983 77.525514 2.332378 9.282903 2.097508 37.918008 0.010605 -0.834078 9.098126 -0.072572 0.072101 -0.155668 -0.000000 0.000000 0.000000 0.000000 0.000000 0.000000 0.000000 
4.729947 16.659705 -2.423893 104.908826 -82.660938 -123.985372 -6.649208 -5.102958 -1.370778 -25.427631 11.826841 -85.815635 -2.871819 1.303899 20.499206 0.493680 4.550243 21.539571 2.548399 0.000000 -46.343700 11.764704 -0.409342 -5.182540 0.852510 -11.834318 9.568075 0.742411 -2.843840 28.025270 -2.334163 -10.427181 -13.051970 0.743700 -0.000001 -60.148800 -10.774929 -0.229026 5.663175 -2.541927 0.479694 -1.182084 -4.812660 0.654777 1.756294 9.066931 -16.938794 -8.913752 -0.850945 -0.033529 -0.467024 0.000000 0.000000 0.000000 1.854082 27.838476 0.703531 -75.795994 28.083811 -35.626637 -4.823321 -4.265668 0.006886 0.725834 -1.877729 -0.015014 -0.199979 -0.012776 -0.000000 0.000000 0.000000 0.000000 0.000000 0.000000 0.000000 7.979842 -11.924509 -2.227277 77.663398 2.197067 9.026940 2.106025 37.770044 0.010634 -0.820151 9.122395 -0.071572 0.071832 -0.155197 -0.000000 0.000000 0.000000 0.000000 0.000000 0.000000 0.000000 
4.736273 16.649436 -2.421354 104.098057 -82.673522 -123.487535 -6.687848 -4.980480 -1.621866 -25.969507 12.302960 -85.261129 -2.654859 1.481882 22.782827 0.530275 4.334062 21.904209 2.390800 -0.000000 -45.373900 11.791927 -0.446119 -5.138403 0.640442 -12.090241 9.725111 0.728165 -2.842819 28.131292 -2.324831 -10.381666 -13.160499 0.766900 -0.000000 -60.391900 -10.674586 -0.321316 5.805399 -2.521408 0.382474 -1.148136 -4.810097 0.560258 1.748488 9.103591 -17.086535 -8.878095 -0.883283 -0.036663 -0.457536 0.000000 0.000000 0.000000 1.967566 27.627116 0.668032 -75.683040 27.886187 -35.081558 -4.840386 -4.367740 0.006353 0.607224 -1.732884 -0.012013 -0.199473 -0.013841 -0.000000 0.000000 0.000000 0.000000 0.000000 0.000000 0.000000 8.211556 -12.132996 -2.235770 77.820905 2.015093 8.636731 2.123108 37.534375 0.010716 -0.791877 9.121636 -0.069274 0.071814 -0.154253 -0.000000 0.000000 0.000000 0.000000 0.000000 0.000000 0.000000 
4.741386 16.642833 -2.418214 103.455429 -82.691795 -123.110400 -6.729693 -4.847142 -1.835229 -26.549302 12.824844 -84.707365 -2.465114 1.619450 24.851590 0.587033 4.382320 21.883545 2.351800 -0.000000 -45.494300 11.800812 -0.489483 -5.068990 0.506719 -12.267602 9.859297 0.714014 -2.834317 28.177438 -2.331992 -10.419427 -13.261955 0.792000 -0.000000 -60.533000 -10.550041 -0.404037 5.880382 -2.497621 0.293208 -1.127004 -4.807471 0.472117 1.745462 9.121561 -17.221992 -8.820539 -0.917334 -0.040359 -0.441463 0.000000 0.000000 0.000000 2.079114 27.426855 0.619672 -75.525671 27.667180 -34.436519 -4.856049 -4.667277 0.005915 0.493511 -1.613716 -0.009606 -0.198873 -0.014682 -0.000000 0.000000 0.000000 0.000000 0.000000 0.000000 0.000000 8.426214 -12.328444 -2.245040 77.987764 1.786737 8.134279 2.147559 37.227292 0.010839 -0.750885 9.095085 -0.065775 0.072013 -0.152899 -0.000000 0.000000 0.000000 0.000000 0.000000 0.000000 0.000000 
4.745393 16.639334 -2.414022 103.075185 -82.703844 -122.961823 -6.778558 -4.707382 -2.019301 -27.136289 13.416490 -84.153060 -2.296348 1.727060 26.749517 0.664525 4.704615 21.530893 2.434600 0.000000 -46.320900 11.787270 -0.537583 -4.977539 0.445512 -12.360494 9.983406 0.700228 -2.820368 28.172657 -2.354116 -10.530923 -13.359708 0.819600 0.000001 -60.563300 -10.402176 -0.473233 5.899770 -2.470164 0.216013 -1.116825 -4.803153 0.394600 1.745075 9.121126 -17.340592 -8.744829 -0.951400 -0.044401 -0.419953 0.000000 0.000000 0.000000 2.189083 27.240624 0.561625 -75.337134 27.430847 -33.719362 -4.868376 -5.154677 0.005612 0.392090 -1.530912 -0.007693 -0.198186 -0.015185 -0.000000 0.000000 0.000000 0.000000 0.000000 0.000000 0.000000 8.615596 -12.501494 -2.253813 78.153696 1.510424 7.538839 2.177782 36.873789 0.010984 -0.696863 9.041234 -0.061076 0.072342 -0.151245 -0.000000 0.000000 0.000000 0.000000 0.000000 0.000000 0.000000 
4.748438 16.638319 -2.408852 102.962149 -82.699165 -123.056909 -6.834448 -4.566097 -2.180629 -27.689545 14.083266 -83.558289 -2.143420 1.807842 28.462442 0.765512 5.309343 20.962419 2.638900 0.000000 -47.666700 11.756570 -0.587308 -4.870424 0.429857 -12.382668 10.105288 0.686371 -2.802967 28.131790 -2.386950 -10.693242 -13.458081 0.849800 -0.000000 -60.491200 -10.241408 -0.528118 5.877426 -2.440809 0.152152 -1.115329 -4.796388 0.329242 1.744993 9.107412 -17.443799 -8.655825 -0.984215 -0.048588 -0.394491 0.000000 0.000000 0.000000 2.301542 27.062227 0.496986 -75.132491 27.188568 -32.936025 -4.876182 -5.831631 0.005445 0.304871 -1.484599 -0.006276 -0.197401 -0.015377 -0.000000 0.000000 0.000000 0.000000 0.000000 0.000000 0.000000 8.779885 -12.650669 -2.260141 78.309310 1.190637 6.882633 2.211750 36.497027 0.011133 -0.633855 8.963961 -0.055477 0.072753 -0.149412 -0.000000 0.000000 0.000000 0.000000 0.000000 0.000000 0.000000 
4.750734 16.638962 -2.402856 103.106024 -82.671773 -123.397867 -6.897795 -4.428222 -2.325934 -28.174599 14.827610 -82.884282 -2.003323 1.863482 29.973105 0.889342 6.164198 20.281585 2.942900 -0.000000 -49.158999 11.713211 -0.635584 -4.755982 0.436351 -12.352490 10.235527 0.672348 -2.784027 28.067267 -2.426095 -10.883040 -13.559610 0.882100 -0.000000 -60.331500 -10.075360 -0.568792 5.830329 -2.410806 0.101864 -1.119668 -4.786759 0.276633 1.742799 9.085193 -17.533385 -8.558790 -1.014685 -0.052726 -0.366679 0.000000 0.000000 0.000000 2.421638 26.884724 0.428963 -74.924323 26.948225 -32.088822 -4.878394 -6.689993 0.005405 0.229682 -1.472815 -0.005253 -0.196490 -0.015296 -0.000000 0.000000 0.000000 0.000000 0.000000 0.000000 0.000000 8.919719 -12.775378 -2.262349 78.446828 0.831877 6.197902 2.247301 36.122026 0.011272 -0.564831 8.868042 -0.049479 0.073179 -0.147524 -0.000000 0.000000 0.000000 0.000000 0.000000 0.000000 0.000000 
4.752650 16.640495 -2.396411 103.426474 -82.622839 -123.912143 -6.967562 -4.297372 -2.459605 -28.558958 15.635421 -82.084399 -1.874625 1.893686 31.247346 1.033148 7.222934 19.596171 3.323200 0.000000 -50.486900 11.665618 -0.679610 -4.643736 0.438770 -12.299372 10.379010 0.658134 -2.764989 27.991357 -2.466543 -11.074756 -13.666779 0.915800 0.000000 -60.106400 -9.912790 -0.598740 5.775058 -2.381657 0.062077 -1.127089 -4.774356 0.234070 1.735975 9.061502 -17.618413 -8.459442 -1.042182 -0.056659 -0.338188 0.000000 0.000000 0.000000 2.550823 26.691932 0.360058 -74.723481 26.725281 -31.169529 -4.874158 -7.734169 0.005443 0.159388 -1.482807 -0.004327 -0.195384 -0.015092 -0.000000 0.000000 0.000000 0.000000 0.000000 0.000000 0.000000 9.041367 -12.884653 -2.258344 78.557850 0.446664 5.531959 2.282024 35.768140 0.011387 -0.499278 8.761375 -0.043879 0.073630 -0.145684 -0.000000 0.000000 0.000000 0.000000 0.000000 0.000000 0.000000 
4.754146 16.642142 -2.389553 103.903263 -82.556068 -124.586238 -7.045965 -4.175962 -2.584924 -28.823320 16.499262 -81.147369 -1.756589 1.902190 32.296589 1.188938 8.399931 18.961105 3.741000 -0.000000 -51.273400 11.614585 -0.718516 -4.540265 0.429390 -12.241578 10.542499 0.644555 -2.746936 27.911543 -2.504914 -11.250907 -13.780474 0.950500 0.000001 -59.836600 -9.752386 -0.619419 5.723170 -2.352882 0.031307 -1.135506 -4.759293 0.200299 1.723986 9.038109 -17.694659 -8.361948 -1.066076 -0.060258 -0.310234 0.000000 0.000000 0.000000 2.700120 26.486373 0.293401 -74.530629 26.509008 -30.194454 -4.862667 -8.913079 0.005570 0.091297 -1.518068 -0.003497 -0.194079 -0.014655 -0.000000 0.000000 0.000000 0.000000 0.000000 0.000000 0.000000 9.143324 -12.973894 -2.248490 78.640282 0.032046 4.895506 2.314604 35.459310 0.011478 -0.429562 8.650769 -0.037880 0.073941 -0.143981 -0.000000 0.000000 0.000000 0.000000 0.000000 0.000000 0.000000 
4.755411 16.643265 -2.382531 104.451988 -82.482220 -125.337758 -7.133447 -4.064532 -2.702749 -28.954558 17.395473 -80.059400 -1.649137 1.891469 33.119214 1.348130 9.620105 18.428047 4.169400 0.000000 -51.343200 11.564481 -0.752011 -4.451281 0.400614 -12.203348 10.722482 0.632457 -2.730427 27.835485 -2.537961 -11.395810 -13.901771 0.985600 0.000000 -59.542100 -9.594889 -0.635768 5.682998 -2.324478 0.004717 -1.143450 -4.742245 0.170669 1.705962 9.019666 -17.766310 -8.270286 -1.086472 -0.063465 -0.283923 0.000000 0.000000 0.000000 2.874264 26.260447 0.230969 -74.345714 26.300228 -29.163429 -4.843438 -10.200053 0.005740 0.020942 -1.567552 -0.002666 -0.192539 -0.014042 -0.000000 0.000000 0.000000 0.000000 0.000000 0.000000 0.000000 9.232020 -13.049155 -2.232758 78.690065 -0.406548 4.314782 2.343477 35.212100 0.011544 -0.356347 8.542872 -0.031882 0.074050 -0.142471 -0.000000 0.000000 0.000000 0.000000 0.000000 0.000000 0.000000 
4.756853 16.643442 -2.375987 104.921956 -82.416507 -126.015230 -7.227938 -3.961937 -2.815128 -28.952304 18.291696 -78.800241 -1.551953 1.862667 33.704940 1.503378 10.830058 18.043543 4.597200 -0.000000 -50.814799 11.523942 -0.779928 -4.384067 0.338264 -12.217696 10.916157 0.622254 -2.715828 27.765735 -2.562187 -11.494127 -14.027118 1.019500 0.000001 -59.254400 -9.445423 -0.656138 5.666451 -2.296952 -0.025669 -1.148894 -4.723340 0.137456 1.680037 9.011828 -17.855069 -8.188905 -1.103590 -0.066226 -0.260428 0.000000 0.000000 0.000000 3.059178 25.984959 0.172743 -74.168663 26.121728 -28.089200 -4.816422 -11.608272 0.005863 -0.070539 -1.607047 -0.001433 -0.190625 -0.013440 -0.000000 0.000000 0.000000 0.000000 0.000000 0.000000 0.000000 9.317650 -13.136991 -2.208861 78.699894 -0.840900 3.852918 2.367095 35.020069 0.011587 -0.299047 8.451057 -0.027283 0.074144 -0.141180 -0.000000 0.000000 0.000000 0.000000 0.000000 0.000000 0.000000 
